<?xml version="1.0" standalone="no"?>
<!DOCTYPE svg PUBLIC "-//W3C//DTD SVG 20010904//EN"
 "http://www.w3.org/TR/2001/REC-SVG-20010904/DTD/svg10.dtd">
<svg version="1.0" xmlns="http://www.w3.org/2000/svg"
 width="210.000000pt" height="210.000000pt" viewBox="0 0 210.000000 210.000000"
 preserveAspectRatio="xMidYMid meet">
<metadata>
Created by potrace 1.11, written by Peter Selinger 2001-2013
</metadata>
<g transform="translate(0.000000,210.000000) scale(0.100000,-0.100000)"
fill="#000000" stroke="none">
<path d="M884 1955 c-458 -99 -772 -533 -714 -986 51 -394 322 -693 710 -784
85 -19 279 -19 375 0 170 35 319 118 450 249 178 180 266 389 265 635 -1 249
-86 456 -260 631 -141 144 -270 214 -463 255 -84 18 -280 18 -363 0z m880
-481 c45 -22 58 -52 64 -149 5 -87 -8 -150 -37 -187 -19 -23 -20 -23 -297 -28
-248 -4 -278 -7 -288 -22 -22 -36 5 -43 197 -48 198 -5 216 -10 243 -62 20
-38 21 -136 3 -174 -31 -62 -39 -64 -319 -64 -140 0 -261 0 -267 0 -9 0 -13
19 -13 60 l0 60 233 2 c228 3 232 3 235 24 4 30 -17 34 -196 34 -121 0 -160 3
-185 16 -60 31 -72 51 -75 134 -3 66 -1 79 19 104 40 51 67 56 318 56 155 0
239 4 256 12 46 21 46 95 0 116 -37 17 -606 17 -623 0 -9 -9 -12 -93 -12 -315
0 -236 -3 -303 -12 -303 -166 -4 -624 3 -641 9 -117 45 -139 253 -36 334 l33
25 16 -21 c9 -12 27 -39 39 -60 l23 -38 -21 -23 c-26 -28 -27 -60 -1 -86 19
-19 33 -20 240 -20 l220 0 0 295 c0 282 1 296 20 315 19 19 33 20 425 20 354
0 409 -2 439 -16z"/>
<path d="M1167 1172 c-15 -9 -34 -35 -43 -58 -14 -37 -14 -45 -1 -77 27 -62
45 -68 213 -65 198 4 199 22 2 26 -145 2 -147 3 -167 29 -30 37 -27 86 5 112
24 19 40 21 170 21 121 0 144 2 144 15 0 24 -284 21 -323 -3z"/>
</g>
</svg>
