<?xml version="1.0" standalone="no"?>
<!DOCTYPE svg PUBLIC "-//W3C//DTD SVG 20010904//EN"
 "http://www.w3.org/TR/2001/REC-SVG-20010904/DTD/svg10.dtd">
<svg version="1.0" xmlns="http://www.w3.org/2000/svg"
 width="200.000000pt" height="200.000000pt" viewBox="0 0 200.000000 200.000000"
 preserveAspectRatio="xMidYMid meet">
<metadata>
Created by potrace 1.11, written by Peter Selinger 2001-2013
</metadata>
<g transform="translate(0.000000,200.000000) scale(0.100000,-0.100000)"
fill="#000000" stroke="none">
<path d="M0 995 l0 -995 998 2 997 3 3 993 2 992 -1000 0 -1000 0 0 -995z
m878 58 l-3 -588 -25 -45 c-17 -29 -41 -53 -70 -70 -42 -23 -56 -25 -207 -28
l-163 -4 0 116 0 116 38 0 c50 0 71 17 82 65 5 22 10 262 10 533 l0 492 170 0
171 0 -3 -587z m632 577 c91 -15 162 -51 194 -100 40 -61 48 -121 44 -333 -3
-183 -4 -194 -28 -235 -43 -76 -136 -112 -285 -112 l-75 0 0 -265 0 -265 -175
0 -175 0 0 660 0 660 218 0 c119 0 246 -5 282 -10z"/>
<path d="M1360 1245 l0 -165 33 0 c20 0 41 7 50 18 20 22 31 132 22 212 -8 72
-30 100 -75 100 l-30 0 0 -165z"/>
</g>
</svg>
